<?xml version="1.0" standalone="no"?>
<!DOCTYPE svg PUBLIC "-//W3C//DTD SVG 20010904//EN"
 "http://www.w3.org/TR/2001/REC-SVG-20010904/DTD/svg10.dtd">
<svg version="1.0" xmlns="http://www.w3.org/2000/svg"
 width="1080.000000pt" height="1086.000000pt" viewBox="0 0 1080.000000 1086.000000"
 preserveAspectRatio="xMidYMid meet">

<g transform="translate(0.000000,1086.000000) scale(0.100000,-0.100000)"
fill="#000000" stroke="none">
<path d="M0 5430 l0 -5430 5400 0 5400 0 0 5430 0 5430 -5400 0 -5400 0 0
-5430z m7260 -2573 c0 -2 32 -145 70 -318 39 -172 70 -315 70 -316 0 -2 -24
-3 -54 -3 l-55 0 -11 58 c-21 107 -19 106 -107 98 -42 -3 -126 -6 -187 -6
l-111 -1 -60 -74 -60 -75 -53 0 -53 0 18 23 c10 13 128 157 263 320 l244 297
43 0 c24 0 43 -2 43 -3z m1114 -19 c23 -33 20 -82 -15 -192 -26 -84 -37 -104
-75 -141 l-44 -43 0 -75 c0 -41 -3 -95 -6 -121 l-7 -47 -41 3 -41 3 3 123 4
122 -258 -2 -258 -3 -38 -122 -39 -123 -39 0 c-24 0 -40 5 -40 12 0 6 24 90
54 187 30 97 71 232 91 301 21 69 40 128 42 133 2 4 159 7 348 7 l344 0 15
-22z m891 3 c-3 -10 -11 -38 -18 -62 l-13 -44 -168 -5 -169 -5 -17 -50 c-9
-27 -43 -139 -76 -247 l-58 -198 -44 0 c-37 0 -43 3 -38 18 67 216 136 451
136 465 0 15 -14 17 -160 17 -88 0 -160 3 -160 7 0 4 7 33 16 65 l17 58 379 0
c365 0 379 -1 373 -19z m853 7 c-3 -7 -13 -37 -22 -65 l-18 -53 -323 0 c-281
0 -326 -2 -339 -16 -18 -18 -29 -54 -24 -81 3 -17 22 -18 298 -21 332 -2 320
0 320 -78 0 -68 -58 -231 -95 -269 l-32 -32 -349 -6 c-192 -3 -352 -3 -355 1
-3 4 3 35 13 70 l20 62 320 0 c196 0 327 4 338 10 21 11 42 73 33 96 -4 12
-54 14 -304 14 -285 0 -299 1 -309 19 -17 33 -11 87 21 188 25 77 39 106 69
135 l38 38 352 0 c277 0 351 -3 348 -12z m-6831 -10 c-2 -7 -12 -39 -21 -70
l-17 -58 -169 0 -169 0 -11 -37 c-5 -21 -38 -132 -73 -248 l-64 -210 -42 -3
c-22 -2 -41 1 -41 6 0 5 32 113 70 240 39 127 70 235 70 241 0 8 -51 11 -160
11 -182 0 -172 -6 -143 87 l17 53 379 0 c299 0 378 -3 374 -12z m799 -9 c27
-30 23 -85 -15 -200 -26 -81 -38 -103 -71 -133 l-41 -36 -7 -123 -7 -122 -42
-3 -43 -3 0 125 0 126 -255 0 -254 0 -31 -102 c-46 -152 -43 -148 -90 -148
-35 0 -40 3 -36 18 4 13 150 496 182 605 5 16 30 17 348 17 336 0 343 0 362
-21z m548 4 c3 -10 33 -142 66 -293 34 -151 64 -285 67 -297 5 -22 2 -23 -49
-23 l-55 0 -12 58 c-7 31 -15 65 -17 75 -5 15 -23 17 -192 17 l-187 0 -66 -77
c-65 -77 -67 -78 -113 -78 -33 0 -45 4 -41 13 2 7 118 150 256 317 l251 305
43 0 c33 0 45 -4 49 -17z m1636 6 c0 -6 -7 -35 -16 -65 l-15 -54 -322 0 c-177
0 -327 -4 -333 -8 -6 -4 -16 -17 -23 -29 -20 -38 -93 -292 -89 -310 3 -17 25
-18 274 -21 254 -2 272 -1 288 16 25 28 37 79 22 91 -7 6 -87 12 -187 13
l-175 3 18 63 19 62 209 0 c197 0 210 -1 220 -19 17 -33 11 -87 -21 -187 -23
-73 -40 -106 -67 -135 l-37 -39 -324 -1 c-301 -1 -326 0 -338 17 -22 30 -15
71 48 284 69 230 85 266 129 304 l32 26 344 0 c243 0 344 -3 344 -11z m-4686
-26 c-4 -16 -12 -44 -19 -63 l-12 -35 -168 -5 -168 -5 -24 -75 c-12 -41 -46
-153 -74 -247 l-52 -173 -44 0 c-42 0 -44 1 -37 23 40 120 140 464 137 470 -2
4 -76 7 -165 7 -148 0 -160 1 -155 18 3 9 11 38 18 65 l13 47 378 0 378 0 -6
-27z m856 25 c0 -2 -9 -30 -19 -63 l-19 -60 -336 -3 -335 -2 -16 -52 c-8 -28
-15 -55 -15 -60 0 -4 149 -8 330 -8 182 0 330 -3 330 -7 0 -4 -7 -33 -16 -65
l-17 -58 -336 -2 -336 -3 -17 -50 c-9 -27 -17 -53 -17 -57 -1 -5 149 -8 333
-8 l334 0 -17 -62 -18 -63 -369 -7 c-203 -4 -374 -5 -381 -3 -8 2 -3 31 17 92
15 48 58 190 95 316 l68 227 379 0 c208 0 378 -1 378 -2z m-1245 -948 c25 -44
50 -78 56 -75 5 4 19 25 30 47 20 39 20 51 4 91 -6 13 -2 17 16 17 19 0 33
-16 68 -80 25 -44 47 -80 51 -80 3 0 26 35 51 78 36 62 50 78 72 80 26 3 26 2
-34 -102 -55 -95 -63 -106 -89 -106 -24 0 -33 9 -58 51 l-29 51 -29 -51 c-25
-44 -33 -51 -59 -51 -24 0 -34 7 -50 38 -12 20 -38 67 -59 105 l-38 67 25 0
c21 0 33 -14 72 -80z m455 40 l0 -40 150 0 150 0 0 40 c0 33 3 40 20 40 19 0
20 -7 20 -105 0 -98 -1 -105 -20 -105 -17 0 -20 7 -20 40 l0 40 -150 0 -150 0
0 -41 c0 -36 -2 -40 -22 -37 -22 3 -23 8 -26 106 l-3 102 26 0 c23 0 25 -4 25
-40z m780 20 c0 -19 -8 -20 -172 -22 -146 -3 -173 -5 -173 -18 0 -13 27 -15
173 -18 l172 -2 0 -25 0 -25 -172 -2 c-146 -3 -173 -5 -173 -18 0 -13 27 -15
173 -18 164 -2 172 -3 172 -22 0 -19 -7 -20 -195 -20 l-195 0 0 105 0 105 195
0 c188 0 195 -1 195 -20z m424 -2 c20 -29 20 -53 -1 -88 -14 -24 -15 -34 -5
-55 16 -36 15 -45 -6 -45 -12 0 -25 14 -37 40 l-18 40 -134 0 -133 0 0 -40 c0
-33 -3 -40 -20 -40 -19 0 -20 7 -20 105 l0 105 179 0 c175 0 180 -1 195 -22z
m451 2 c0 -13 -27 -15 -172 -18 -164 -2 -173 -3 -173 -22 0 -19 9 -20 173 -22
164 -3 172 -4 172 -23 0 -19 -8 -20 -172 -23 -164 -2 -173 -3 -173 -22 0 -19
9 -20 173 -22 145 -3 172 -5 172 -18 0 -13 -28 -15 -195 -15 l-195 0 -3 89
c-2 49 0 95 2 103 5 11 44 13 198 11 164 -3 193 -5 193 -18z m585 -75 c41 -51
76 -98 78 -104 7 -21 -35 -11 -58 14 -22 23 -30 25 -120 25 -90 0 -98 -2 -120
-25 -13 -14 -34 -25 -47 -25 -21 0 -14 12 59 104 108 136 108 136 208 11z
m510 76 c15 -29 12 -72 -6 -92 -13 -15 -14 -23 -4 -54 7 -20 9 -39 6 -42 -12
-12 -36 8 -50 42 l-15 35 -135 0 -136 0 0 -40 c0 -33 -3 -40 -20 -40 -19 0
-20 7 -20 105 l0 105 185 0 c172 0 185 -1 195 -19z m450 -1 c0 -17 -8 -19 -87
-22 l-88 -3 -3 -82 c-3 -75 -5 -83 -22 -83 -18 0 -20 7 -20 85 l0 85 -85 0
c-78 0 -85 2 -85 20 0 19 7 20 195 20 187 0 195 -1 195 -20z m400 -36 c85 -86
80 -85 165 -10 41 37 82 66 94 66 20 0 21 -5 21 -106 0 -95 -2 -105 -17 -102
-15 3 -18 16 -21 81 l-3 78 -74 -67 -75 -66 -37 30 c-21 17 -54 46 -72 66 -19
20 -39 36 -43 36 -4 0 -8 -36 -8 -80 0 -73 -2 -80 -20 -80 -19 0 -20 7 -20
105 l0 105 28 0 c20 0 42 -15 82 -56z m720 36 c0 -19 -7 -20 -170 -20 -163 0
-170 -1 -170 -20 0 -19 7 -20 170 -20 l170 0 0 -25 0 -25 -170 0 c-163 0 -170
-1 -170 -20 0 -19 7 -20 170 -20 163 0 170 -1 170 -20 0 -19 -7 -20 -195 -20
l-195 0 0 105 0 105 195 0 c188 0 195 -1 195 -20z m440 0 c0 -19 -7 -20 -170
-20 -163 0 -170 -1 -170 -20 0 -19 7 -20 171 -20 l170 0 -3 -22 c-3 -23 -5
-23 -170 -26 -160 -2 -168 -3 -168 -22 0 -19 7 -20 170 -20 163 0 170 -1 170
-20 0 -19 -7 -20 -195 -20 l-195 0 0 105 0 105 195 0 c188 0 195 -1 195 -20z
m440 0 c0 -19 -7 -20 -90 -20 l-90 0 0 -85 c0 -78 -2 -85 -20 -85 -18 0 -20 7
-20 85 l0 85 -85 0 c-78 0 -85 2 -85 20 0 19 7 20 195 20 188 0 195 -1 195
-20z m430 0 c0 -19 -7 -20 -170 -20 -163 0 -170 -1 -170 -20 0 -19 7 -20 158
-20 110 0 162 -4 170 -12 7 -7 12 -30 12 -53 0 -23 -5 -46 -12 -53 -8 -8 -65
-12 -190 -12 -171 0 -178 1 -178 20 0 19 8 20 167 22 151 3 168 5 171 21 3 16
-9 17 -148 17 -85 0 -160 5 -171 10 -14 8 -19 21 -19 53 0 24 5 48 12 55 8 8
65 12 190 12 171 0 178 -1 178 -20z m678 8 c7 -7 12 -31 12 -55 0 -58 -15 -63
-196 -63 l-144 0 0 -40 c0 -33 -3 -40 -20 -40 -19 0 -20 7 -20 105 l0 105 178
0 c125 0 182 -4 190 -12z m442 -7 c5 -11 10 -50 10 -86 0 -109 7 -105 -193
-105 -121 0 -177 4 -185 12 -7 7 -12 43 -12 93 0 50 5 86 12 93 8 8 64 12 185
12 160 0 173 -1 183 -19z m147 -61 c23 -41 46 -76 50 -77 4 -2 21 20 36 47 27
48 28 52 13 75 -21 32 -20 35 7 35 19 0 33 -17 71 -85 l48 -86 50 86 c41 71
54 85 75 85 l24 0 -32 -57 c-84 -148 -84 -148 -115 -151 -27 -3 -33 2 -58 49
-31 55 -30 55 -67 -13 -16 -31 -25 -38 -48 -38 -27 0 -35 10 -90 106 -60 105
-60 105 -34 102 22 -2 35 -17 70 -78z m801 63 c-3 -16 -21 -18 -176 -21 -163
-2 -172 -3 -172 -22 0 -19 9 -20 173 -22 164 -3 172 -4 172 -23 0 -19 -8 -20
-172 -23 -164 -2 -173 -3 -173 -22 0 -19 9 -20 173 -22 145 -3 172 -5 172 -18
0 -13 -29 -15 -192 -18 l-193 -2 0 105 0 105 196 0 c181 0 195 -1 192 -17z
m420 5 c21 -27 23 -58 7 -93 -14 -28 -15 -41 -6 -66 14 -41 14 -39 -7 -39 -12
0 -25 14 -37 40 l-18 40 -134 0 -133 0 0 -40 c0 -33 -3 -40 -20 -40 -19 0 -20
7 -20 105 l0 105 179 0 c131 0 181 -3 189 -12z"/>
<path d="M7094 2629 c-44 -52 -84 -100 -88 -106 -6 -10 18 -13 107 -13 l115 0
-15 68 c-9 37 -21 85 -27 106 l-11 39 -81 -94z"/>
<path d="M7695 2668 c-8 -28 -15 -53 -15 -55 0 -2 128 -3 285 -3 284 0 285 0
299 23 14 21 20 47 17 75 -1 9 -65 12 -286 12 l-284 0 -16 -52z"/>
<path d="M3408 2655 l-15 -55 289 0 289 0 15 36 c30 72 42 69 -277 72 l-286 2
-15 -55z"/>
<path d="M4457 2615 c-48 -57 -87 -107 -87 -110 0 -3 52 -5 115 -5 l115 0 -6
28 c-13 59 -46 187 -48 189 -1 1 -41 -45 -89 -102z"/>
<path d="M2520 1910 c0 -19 7 -20 150 -20 143 0 150 1 150 20 0 19 -7 20 -150
20 -143 0 -150 -1 -150 -20z"/>
<path d="M3758 1895 c-16 -18 -28 -36 -28 -39 0 -3 27 -6 60 -6 33 0 60 4 60
8 0 4 -15 22 -32 39 l-33 30 -27 -32z"/>
<path d="M4060 1910 c0 -20 4 -20 153 -18 127 3 152 5 152 18 0 13 -25 15
-152 18 -149 2 -153 2 -153 -18z"/>
<path d="M7630 1910 c0 -19 7 -20 150 -20 143 0 150 1 150 20 0 19 -7 20 -150
20 -143 0 -150 -1 -150 -20z"/>
<path d="M8064 1916 c-3 -7 -4 -35 -2 -62 l3 -49 150 0 150 0 0 60 0 60 -148
3 c-119 2 -148 0 -153 -12z"/>
<path d="M9440 1910 c0 -19 7 -20 150 -20 143 0 150 1 150 20 0 19 -7 20 -150
20 -143 0 -150 -1 -150 -20z"/>
</g>
</svg>
