<?xml version="1.0" standalone="no"?>
<!DOCTYPE svg PUBLIC "-//W3C//DTD SVG 20010904//EN"
 "http://www.w3.org/TR/2001/REC-SVG-20010904/DTD/svg10.dtd">
<svg version="1.0" xmlns="http://www.w3.org/2000/svg"
 width="1080.000000pt" height="1350.000000pt" viewBox="0 0 1080.000000 1350.000000"
 preserveAspectRatio="xMidYMid meet">

<g transform="translate(0.000000,1350.000000) scale(0.100000,-0.100000)"
fill="#000000" stroke="none">
<path d="M5697 11263 c-4 -3 -7 -134 -7 -290 l0 -283 1173 -2 1172 -3 0 -850
0 -850 -877 -3 -878 -2 0 285 0 285 585 0 585 0 0 285 0 285 -880 0 -880 0 2
-857 3 -858 1463 -3 1462 -2 0 1435 0 1435 -1458 0 c-802 0 -1462 -3 -1465 -7z"/>
<path d="M2287 9833 l3 -1428 1462 0 1463 0 3 858 2 857 -880 0 -880 0 0 -285
0 -285 583 -2 582 -3 3 -282 2 -283 -880 0 -880 0 2 853 3 852 1173 3 1172 2
0 285 0 285 -1467 0 -1468 0 2 -1427z"/>
<path d="M2287 6623 l3 -1428 1462 0 1463 0 0 285 0 285 -1172 3 -1173 2 0
855 0 855 880 0 880 0 -2 -282 -3 -283 -582 -3 -583 -2 0 -285 0 -285 880 0
880 0 0 855 0 855 -1467 0 -1468 0 2 -1427z"/>
<path d="M5670 7195 l0 -855 880 0 880 0 0 285 0 285 -585 0 -585 0 0 285 0
285 880 0 880 0 0 -855 0 -855 -1172 -2 -1173 -3 -3 -279 c-2 -217 1 -281 10
-288 7 -4 668 -8 1468 -8 l1455 0 -3 1430 -2 1430 -1465 0 -1465 0 0 -855z"/>
<path d="M8490 4221 c-11 -37 -20 -71 -20 -75 0 -3 74 -6 165 -6 91 0 165 -2
165 -4 0 -3 -20 -69 -44 -148 -24 -79 -56 -182 -70 -231 -15 -48 -29 -94 -32
-102 -5 -12 4 -15 43 -15 l50 0 26 88 c15 48 49 159 75 247 l48 160 169 5 169
5 22 73 22 72 -383 0 -384 0 -21 -69z"/>
<path d="M9415 4280 c-30 -12 -62 -50 -84 -100 -31 -72 -64 -206 -57 -233 14
-57 12 -57 333 -57 l296 0 -6 -37 c-4 -20 -12 -42 -19 -49 -10 -9 -102 -14
-343 -20 l-331 -7 -17 -58 c-9 -32 -17 -63 -17 -69 0 -7 113 -10 349 -10 l349
0 32 26 c39 33 66 86 96 188 27 93 30 134 10 162 -14 18 -32 19 -313 24 -289
5 -298 6 -301 25 -1 11 4 31 11 45 l13 25 333 5 333 5 19 60 c10 33 19 66 19
73 0 9 -75 12 -342 11 -189 0 -352 -4 -363 -9z"/>
<path d="M2906 4270 l-379 -5 -12 -35 c-7 -20 -16 -50 -20 -68 l-7 -32 167 0
166 0 -7 -22 c-4 -13 -36 -117 -71 -233 -35 -115 -66 -218 -69 -227 -5 -16 2
-18 44 -18 l49 0 52 173 c28 94 62 206 74 247 l24 75 168 5 169 5 18 60 c10
33 17 64 16 70 -2 7 -128 8 -382 5z"/>
<path d="M4294 3978 c-137 -166 -257 -313 -267 -325 l-18 -23 59 0 59 0 67 80
67 80 181 -2 182 -3 12 -50 c6 -27 15 -62 18 -77 6 -26 10 -28 60 -28 29 0 55
3 58 6 3 3 0 29 -7 57 -7 29 -39 172 -71 320 l-59 267 -46 0 -46 0 -249 -302z
m293 -45 c-3 -2 -50 -2 -106 -1 l-101 3 82 99 83 99 23 -98 c12 -54 21 -100
19 -102z"/>
<path d="M5571 4267 c-51 -26 -79 -78 -131 -247 -81 -261 -92 -312 -80 -346 6
-16 17 -32 23 -36 7 -4 152 -8 322 -8 289 0 312 1 342 19 50 31 92 121 127
275 10 40 -11 95 -37 101 -12 3 -109 4 -216 3 l-195 -3 -18 -60 c-10 -33 -18
-66 -18 -72 0 -10 44 -13 186 -13 l187 0 -7 -32 c-14 -69 -9 -68 -308 -68
l-268 0 0 26 c0 31 66 256 86 297 l15 27 329 0 329 0 21 66 c11 36 20 70 20
75 0 15 -680 11 -709 -4z"/>
<path d="M7094 4192 c-39 -48 -157 -192 -263 -319 l-191 -233 60 0 59 0 63 75
63 75 185 -2 185 -3 16 -70 16 -70 60 -3 61 -3 -14 58 c-25 106 -105 467 -115
526 l-11 57 -52 0 -51 0 -71 -88z m99 -139 c10 -43 20 -88 23 -100 6 -23 5
-23 -100 -23 -58 0 -106 3 -106 6 0 8 154 194 161 194 3 0 13 -35 22 -77z"/>
<path d="M7656 4263 c-3 -10 -27 -92 -55 -183 -27 -91 -66 -219 -86 -285 -19
-66 -38 -128 -41 -137 -5 -16 2 -18 44 -18 l49 0 12 43 c7 23 23 79 37 125
l25 82 249 0 250 0 0 -125 0 -125 48 0 49 0 6 125 6 125 37 32 c43 38 63 81
94 204 21 80 22 92 9 119 l-14 30 -357 3 c-333 2 -357 1 -362 -15z m617 -161
c0 -18 -9 -42 -19 -53 -16 -18 -33 -19 -292 -19 l-274 0 5 28 c3 15 10 39 16
55 l11 27 277 -2 278 -3 -2 -33z"/>
<path d="M816 4213 c-10 -32 -20 -66 -22 -75 -5 -17 7 -18 160 -18 91 0 166
-2 166 -5 0 -3 -31 -109 -70 -235 -38 -126 -70 -236 -70 -245 0 -11 11 -15 44
-15 l45 0 15 53 c9 28 42 140 75 247 l58 195 169 5 169 5 18 55 c9 30 20 63
23 73 5 16 -17 17 -378 17 l-384 0 -18 -57z"/>
<path d="M1671 4238 c-28 -89 -174 -576 -179 -596 l-4 -22 383 2 383 3 18 60
c10 33 18 66 18 73 0 9 -73 12 -331 12 l-331 0 6 25 c3 13 11 36 16 50 l10 25
329 0 c251 0 331 3 338 13 5 6 15 32 22 57 7 25 15 53 17 62 5 17 -17 18 -328
20 l-334 3 14 48 13 47 335 0 334 0 9 23 c5 13 16 47 25 75 l15 52 -384 0
-383 0 -11 -32z"/>
<path d="M3279 3950 l-96 -320 48 0 48 0 26 88 c14 48 32 103 38 122 l13 35
249 0 250 0 -4 -122 -3 -123 49 0 50 0 7 46 c3 26 6 80 6 120 l0 73 44 45 c36
36 50 60 71 128 14 45 29 108 32 139 9 93 28 89 -380 89 l-352 0 -96 -320z
m708 138 c-3 -23 -14 -48 -23 -55 -14 -10 -84 -13 -291 -13 -150 0 -273 1
-273 3 0 2 7 27 15 55 l16 52 281 0 281 0 -6 -42z"/>
<path d="M1106 3368 c9 -18 37 -68 61 -110 42 -73 47 -78 78 -78 30 0 38 6 61
46 l27 46 26 -46 c23 -41 30 -46 61 -46 34 0 37 3 90 97 68 121 70 125 34 121
-23 -2 -36 -17 -74 -80 -25 -43 -48 -78 -51 -78 -3 0 -25 36 -50 80 -38 69
-48 80 -71 80 -33 0 -33 -1 -12 -41 14 -29 14 -32 -11 -75 -14 -24 -28 -44
-30 -44 -3 0 -25 36 -51 80 -41 71 -49 80 -75 80 l-30 0 17 -32z"/>
<path d="M1600 3290 l0 -110 25 0 c23 0 25 4 25 40 l0 41 148 -3 147 -3 3 -37
c3 -33 7 -38 28 -38 l25 0 -3 108 c-3 106 -3 107 -27 107 -22 0 -25 -4 -25
-40 l-1 -40 -147 -3 -148 -3 0 46 c0 41 -2 45 -25 45 l-25 0 0 -110z"/>
<path d="M2040 3290 l0 -110 201 0 200 0 -3 23 c-3 22 -5 22 -175 25 -145 2
-173 5 -173 17 0 13 27 15 175 15 l175 0 0 25 0 25 -175 0 c-148 0 -175 2
-175 15 0 12 28 15 173 17 l172 3 0 25 0 25 -197 3 -198 2 0 -110z"/>
<path d="M2470 3290 l0 -110 25 0 c23 0 25 4 25 40 l0 40 130 0 130 0 20 -40
c15 -30 26 -40 45 -40 24 0 24 1 10 39 -12 34 -12 41 1 52 21 17 18 92 -4 112
-16 15 -45 17 -200 17 l-182 0 0 -110z m348 38 c-6 -18 -290 -18 -295 0 -4 9
30 12 147 12 117 0 151 -3 148 -12z"/>
<path d="M2910 3290 l0 -110 200 0 200 0 0 25 0 25 -175 0 c-149 0 -175 2
-175 15 0 13 26 15 175 15 l175 0 0 25 0 25 -175 0 c-149 0 -175 2 -175 15 0
13 26 15 175 15 l175 0 0 30 0 30 -200 0 -200 0 0 -110z"/>
<path d="M3685 3298 c-44 -56 -81 -105 -83 -110 -2 -4 10 -8 27 -8 22 0 35 7
47 25 16 24 21 25 114 25 93 0 98 -1 114 -25 12 -19 25 -25 52 -25 l35 0 -88
109 c-114 142 -112 142 -218 9z m133 12 l23 -30 -51 0 -51 0 23 30 c12 17 25
30 28 30 3 0 16 -13 28 -30z"/>
<path d="M4020 3290 l0 -110 25 0 c23 0 25 4 25 40 l0 40 128 0 129 0 16 -40
c12 -32 20 -40 41 -40 29 0 32 13 12 49 -12 22 -11 28 6 52 25 33 18 93 -12
109 -10 6 -95 10 -194 10 l-176 0 0 -110z m340 35 c0 -13 -23 -15 -145 -15
-122 0 -145 2 -145 15 0 13 23 15 145 15 122 0 145 -2 145 -15z"/>
<path d="M4454 3385 c-14 -37 2 -45 91 -45 l85 0 0 -80 c0 -79 0 -80 25 -80
25 0 25 1 25 80 l0 80 85 0 85 0 0 30 0 30 -195 0 c-165 0 -197 -2 -201 -15z"/>
<path d="M5140 3290 l0 -110 25 0 c24 0 25 2 25 76 l0 76 75 -67 75 -67 73 68
72 68 3 -77 c3 -74 4 -77 27 -77 l25 0 0 110 0 110 -26 0 c-19 0 -47 -19 -95
-65 -38 -36 -75 -65 -82 -65 -7 0 -42 29 -77 65 -49 49 -71 65 -92 65 l-28 0
0 -110z"/>
<path d="M5580 3290 l0 -110 200 0 200 0 0 25 0 25 -175 0 c-149 0 -175 2
-175 15 0 13 26 15 175 15 l175 0 0 25 0 25 -175 0 c-148 0 -175 2 -175 15 0
12 28 15 173 17 l172 3 3 28 3 27 -200 0 -201 0 0 -110z"/>
<path d="M6020 3290 l0 -110 201 0 200 0 -3 23 c-3 22 -5 22 -175 25 -145 2
-173 5 -173 17 0 13 27 15 175 15 l175 0 0 25 0 25 -175 0 c-148 0 -175 2
-175 15 0 12 28 15 173 17 l172 3 0 25 0 25 -197 3 -198 2 0 -110z"/>
<path d="M6452 3373 c3 -28 3 -28 91 -31 l87 -3 0 -79 c0 -79 0 -80 25 -80 25
0 25 1 25 80 l0 80 85 0 85 0 0 30 0 30 -201 0 -200 0 3 -27z"/>
<path d="M6907 3382 c-18 -20 -22 -78 -7 -102 7 -12 42 -16 172 -20 219 -7
212 -24 -12 -28 l-170 -2 0 -25 0 -25 188 0 c133 0 192 4 200 12 16 16 15 80
0 101 -11 14 -37 17 -172 19 -115 2 -160 6 -163 15 -4 10 37 13 169 15 l173 3
3 28 3 27 -184 0 c-165 0 -186 -2 -200 -18z"/>
<path d="M7580 3290 l0 -110 25 0 c23 0 25 4 25 40 l0 40 159 0 c180 0 191 4
191 69 0 67 -11 71 -218 71 l-182 0 0 -110z m348 38 c-4 -10 -42 -13 -148 -13
-106 0 -144 3 -147 13 -4 9 30 12 147 12 117 0 151 -3 148 -12z"/>
<path d="M8035 3386 c-15 -11 -20 -29 -23 -82 -2 -38 1 -81 7 -97 l11 -27 187
2 188 3 3 95 c2 80 0 97 -15 107 -25 19 -332 18 -358 -1z m325 -101 l0 -55
-145 0 -145 0 0 55 0 55 145 0 145 0 0 -55z"/>
<path d="M8452 3388 c1 -7 27 -57 57 -110 53 -96 55 -98 90 -98 33 0 38 4 60
46 27 50 27 50 63 -15 14 -25 23 -31 51 -31 34 0 37 4 93 102 33 57 61 106 62
110 2 5 -10 8 -27 8 -28 0 -35 -8 -77 -80 -25 -44 -50 -78 -54 -75 -5 3 -27
39 -50 80 -37 67 -45 75 -71 75 -34 0 -35 -2 -12 -41 17 -28 17 -31 -7 -74
-14 -25 -27 -45 -30 -45 -3 0 -26 35 -50 78 -38 64 -50 78 -74 80 -19 3 -27
-1 -24 -10z"/>
<path d="M8950 3290 l0 -110 200 0 200 0 0 25 0 25 -175 0 c-149 0 -175 2
-175 15 0 13 26 15 175 15 l175 0 0 25 0 25 -172 2 c-124 2 -172 6 -175 15 -4
10 37 13 169 15 l173 3 3 28 3 27 -200 0 -201 0 0 -110z"/>
<path d="M9390 3290 l0 -110 25 0 c23 0 25 4 25 40 l0 40 131 0 131 0 15 -40
c14 -34 21 -40 44 -40 l29 0 -16 40 c-15 36 -15 41 0 55 22 23 21 88 -2 108
-16 15 -45 17 -200 17 l-182 0 0 -110z m348 38 c-4 -10 -42 -13 -148 -13 -106
0 -144 3 -147 13 -4 9 30 12 147 12 117 0 151 -3 148 -12z"/>
</g>
</svg>
